<?xml version="1.0" encoding="UTF-8" standalone="no"?>
<svg
   xmlns:dc="http://purl.org/dc/elements/1.1/"
   xmlns:cc="http://creativecommons.org/ns#"
   xmlns:rdf="http://www.w3.org/1999/02/22-rdf-syntax-ns#"
   xmlns:svg="http://www.w3.org/2000/svg"
   xmlns="http://www.w3.org/2000/svg"
   xmlns:sodipodi="http://sodipodi.sourceforge.net/DTD/sodipodi-0.dtd"
   xmlns:inkscape="http://www.inkscape.org/namespaces/inkscape"
   width="24"
   height="24"
   viewBox="0 0 24 24"
   id="svg4426"
   version="1.1"
   inkscape:version="0.91 r"
   sodipodi:docname="ic_heart_filled_gray.svg">
  <metadata
     id="metadata4434">
    <rdf:RDF>
      <cc:Work
         rdf:about="">
        <dc:format>image/svg+xml</dc:format>
        <dc:type
           rdf:resource="http://purl.org/dc/dcmitype/StillImage" />
        <dc:title></dc:title>
      </cc:Work>
    </rdf:RDF>
  </metadata>
  <defs
     id="defs4432" />
  <sodipodi:namedview
     pagecolor="#ffffff"
     bordercolor="#666666"
     borderopacity="1"
     objecttolerance="10"
     gridtolerance="10"
     guidetolerance="10"
     inkscape:pageopacity="0"
     inkscape:pageshadow="2"
     inkscape:window-width="1916"
     inkscape:window-height="1143"
     id="namedview4430"
     showgrid="false"
     inkscape:zoom="8"
     inkscape:cx="-18.379133"
     inkscape:cy="3.7517711"
     inkscape:window-x="1680"
     inkscape:window-y="36"
     inkscape:window-maximized="0"
     inkscape:current-layer="svg4426" />
  <path
     d="M 12,21.175 10.55,19.86 C 5.4,15.185 2,12.1 2,8.325 c 0,-3.085 2.415,-5.5 5.5,-5.5 1.74,0 3.41,0.81 4.5,2.085 1.09,-1.275 2.76,-2.085 4.5,-2.085 3.085,0 5.5,2.415 5.5,5.5 0,3.775 -3.4,6.86 -8.55,11.535 L 12,21.175 Z"
     id="path4428"
     style="fill:#cecece;fill-opacity:1"
     inkscape:connector-curvature="0" />
  <path
     id="path4559"
     d="m -34.911784,26.275 c -1.725777,0 -3.382126,0.803378 -4.463216,2.067956 -1.08109,-1.264578 -2.737439,-2.067956 -4.463215,-2.067956 -3.059782,0 -5.455041,2.395259 -5.455041,5.45504 0,3.744143 3.372207,6.803925 8.480109,11.440709 L -39.375,44.475 l 1.438147,-1.304251 c 5.107902,-4.636784 8.480109,-7.696566 8.480109,-11.440709 0,-3.059781 -2.395259,-5.45504 -5.45504,-5.45504 z m -4.359074,15.427847 -0.104141,0.09423 -0.104142,-0.09423 c -4.716131,-4.279727 -7.830463,-7.10643 -7.830463,-9.972807 0,-1.978691 1.492697,-3.471389 3.47139,-3.471389 1.527411,0 3.01515,0.986867 3.535858,2.340708 l 1.849755,0 c 0.525667,-1.353841 2.013405,-2.340708 3.540818,-2.340708 1.978691,0 3.471389,1.492698 3.471389,3.471389 0,2.866377 -3.114333,5.69308 -7.830463,9.972807 z"
     inkscape:connector-curvature="0"
     style="fill:#dd0000;fill-opacity:1" />
  <path
     d="m -40.625,24.8 -1.45,-1.315 c -5.15,-4.675 -8.55,-7.76 -8.55,-11.535 0,-3.085 2.415,-5.5 5.5,-5.5 1.74,0 3.41,0.81 4.5,2.085 1.09,-1.275 2.76,-2.085 4.5,-2.085 3.085,0 5.5,2.415 5.5,5.5 0,3.775 -3.4,6.86 -8.55,11.535 l -1.45,1.315 z"
     id="path4428-1"
     style="fill:#000000;fill-opacity:1"
     inkscape:connector-curvature="0" />
</svg>
