<?xml version="1.0" encoding="UTF-8" standalone="no"?>
<svg
   xmlns:dc="http://purl.org/dc/elements/1.1/"
   xmlns:cc="http://creativecommons.org/ns#"
   xmlns:rdf="http://www.w3.org/1999/02/22-rdf-syntax-ns#"
   xmlns:svg="http://www.w3.org/2000/svg"
   xmlns="http://www.w3.org/2000/svg"
   xmlns:sodipodi="http://sodipodi.sourceforge.net/DTD/sodipodi-0.dtd"
   xmlns:inkscape="http://www.inkscape.org/namespaces/inkscape"
   width="24"
   height="24"
   viewBox="0 0 24 24"
   id="svg4426"
   version="1.1"
   inkscape:version="0.91 r"
   sodipodi:docname="ic_heart.svg">
  <metadata
     id="metadata4434">
    <rdf:RDF>
      <cc:Work
         rdf:about="">
        <dc:format>image/svg+xml</dc:format>
        <dc:type
           rdf:resource="http://purl.org/dc/dcmitype/StillImage" />
        <dc:title></dc:title>
      </cc:Work>
    </rdf:RDF>
  </metadata>
  <defs
     id="defs4432" />
  <sodipodi:namedview
     pagecolor="#ffffff"
     bordercolor="#666666"
     borderopacity="1"
     objecttolerance="10"
     gridtolerance="10"
     guidetolerance="10"
     inkscape:pageopacity="0"
     inkscape:pageshadow="2"
     inkscape:window-width="1362"
     inkscape:window-height="711"
     id="namedview4430"
     showgrid="false"
     inkscape:zoom="8"
     inkscape:cx="9.370867"
     inkscape:cy="3.7517711"
     inkscape:window-x="0"
     inkscape:window-y="36"
     inkscape:window-maximized="0"
     inkscape:current-layer="svg4426" />
  <path
     d="M 10.625,50.925 9.175,49.61 c -5.15,-4.675 -8.55,-7.76 -8.55,-11.535 0,-3.085 2.415,-5.5 5.5,-5.5 1.74,0 3.41,0.81 4.5,2.085 1.09,-1.275 2.76,-2.085 4.5,-2.085 3.085,0 5.5,2.415 5.5,5.5 0,3.775 -3.4,6.86 -8.55,11.535 l -1.45,1.315 z"
     id="path4428"
     style="fill:#000000;fill-opacity:1"
     inkscape:connector-curvature="0" />
  <path
     id="path4559"
     d="M 16.463216,2.9 C 14.737439,2.9 13.08109,3.7033784 12,4.9679559 10.91891,3.7033784 9.2625614,2.9 7.5367849,2.9 4.477003,2.9 2.081744,5.2952586 2.081744,8.35504 c 0,3.744143 3.3722071,6.803925 8.480109,11.440709 L 12,21.1 13.438147,19.795749 C 18.546049,15.158965 21.918256,12.099183 21.918256,8.35504 21.918256,5.2952586 19.522997,2.9 16.463216,2.9 Z m -4.359074,15.427847 -0.104141,0.09423 -0.104142,-0.09423 C 7.1797284,14.04812 4.065396,11.221417 4.065396,8.35504 c 0,-1.9786908 1.4926975,-3.4713892 3.4713896,-3.4713892 1.5274115,0 3.0151504,0.9868674 3.5358584,2.3407086 l 1.849755,0 c 0.525667,-1.3538412 2.013405,-2.3407086 3.540818,-2.3407086 1.978691,0 3.471389,1.4926984 3.471389,3.4713892 0,2.866377 -3.114333,5.69308 -7.830463,9.972807 z"
     inkscape:connector-curvature="0"
     style="fill:#dd0000;fill-opacity:1" />
</svg>
