<?xml version="1.0" encoding="UTF-8" standalone="no"?>
<svg
   xmlns:dc="http://purl.org/dc/elements/1.1/"
   xmlns:cc="http://creativecommons.org/ns#"
   xmlns:rdf="http://www.w3.org/1999/02/22-rdf-syntax-ns#"
   xmlns:svg="http://www.w3.org/2000/svg"
   xmlns="http://www.w3.org/2000/svg"
   xmlns:sodipodi="http://sodipodi.sourceforge.net/DTD/sodipodi-0.dtd"
   xmlns:inkscape="http://www.inkscape.org/namespaces/inkscape"
   width="32"
   height="32"
   viewBox="0 0 32 32"
   id="svg4318"
   version="1.1"
   inkscape:version="0.91 r"
   sodipodi:docname="ic_preview.svg">
  <metadata
     id="metadata4326">
    <rdf:RDF>
      <cc:Work
         rdf:about="">
        <dc:format>image/svg+xml</dc:format>
        <dc:type
           rdf:resource="http://purl.org/dc/dcmitype/StillImage" />
        <dc:title></dc:title>
      </cc:Work>
    </rdf:RDF>
  </metadata>
  <defs
     id="defs4324" />
  <sodipodi:namedview
     pagecolor="#ffffff"
     bordercolor="#666666"
     borderopacity="1"
     objecttolerance="10"
     gridtolerance="10"
     guidetolerance="10"
     inkscape:pageopacity="0"
     inkscape:pageshadow="2"
     inkscape:window-width="1362"
     inkscape:window-height="729"
     id="namedview4322"
     showgrid="false"
     inkscape:zoom="0.76302083"
     inkscape:cx="-186.06608"
     inkscape:cy="253.06514"
     inkscape:window-x="312"
     inkscape:window-y="1098"
     inkscape:window-maximized="0"
     inkscape:current-layer="svg4318" />
  <path
     d="m 16,8.5 c -5,0 -9.27,3.11 -11,7.5 1.73,4.39 6,7.5 11,7.5 5,0 9.27,-3.11 11,-7.5 C 25.27,11.61 21.005,8.5 16,8.5 Z M 16,21 c -2.76,0 -5,-2.24 -5,-5 0,-2.76 2.24,-5 5,-5 2.76,0 5,2.24 5,5 0,2.76 -2.24,5 -5,5 z m 0,-8 c -1.655,0 -3,1.34 -3,3 0,1.66 1.345,3 3,3 1.655,0 3,-1.34 3,-3 0,-1.66 -1.345,-3 -3,-3 z"
     id="path4320"
     inkscape:connector-curvature="0"
     style="fill:#ffffff" />
</svg>
