<?xml version="1.0" encoding="UTF-8" standalone="no"?>
<!-- Created with Inkscape (http://www.inkscape.org/) -->

<svg
   xmlns:dc="http://purl.org/dc/elements/1.1/"
   xmlns:cc="http://creativecommons.org/ns#"
   xmlns:rdf="http://www.w3.org/1999/02/22-rdf-syntax-ns#"
   xmlns:svg="http://www.w3.org/2000/svg"
   xmlns="http://www.w3.org/2000/svg"
   xmlns:sodipodi="http://sodipodi.sourceforge.net/DTD/sodipodi-0.dtd"
   xmlns:inkscape="http://www.inkscape.org/namespaces/inkscape"
   width="140mm"
   height="140mm"
   viewBox="0 0 496.06299 496.06299"
   id="svg2"
   version="1.1"
   inkscape:version="0.91 r"
   sodipodi:docname="ic_github.svg"
   inkscape:export-filename="/home/maddoc/android/MrHyde-web/img/ic_github.png"
   inkscape:export-xdpi="25.4"
   inkscape:export-ydpi="25.4">
  <defs
     id="defs4" />
  <sodipodi:namedview
     id="base"
     pagecolor="#ffffff"
     bordercolor="#666666"
     borderopacity="1.0"
     inkscape:pageopacity="0.0"
     inkscape:pageshadow="2"
     inkscape:zoom="1.4"
     inkscape:cx="346.63986"
     inkscape:cy="277.24577"
     inkscape:document-units="px"
     inkscape:current-layer="layer1"
     showgrid="true"
     inkscape:snap-bbox="true"
     inkscape:bbox-nodes="true"
     inkscape:snap-bbox-edge-midpoints="true"
     inkscape:object-nodes="true"
     showborder="true"
     inkscape:window-width="1916"
     inkscape:window-height="1143"
     inkscape:window-x="1680"
     inkscape:window-y="36"
     inkscape:window-maximized="0"
     borderlayer="true"
     inkscape:snap-global="false">
    <inkscape:grid
       type="xygrid"
       id="grid4147"
       visible="true" />
  </sodipodi:namedview>
  <metadata
     id="metadata7">
    <rdf:RDF>
      <cc:Work
         rdf:about="">
        <dc:format>image/svg+xml</dc:format>
        <dc:type
           rdf:resource="http://purl.org/dc/dcmitype/StillImage" />
        <dc:title></dc:title>
      </cc:Work>
    </rdf:RDF>
  </metadata>
  <g
     inkscape:label="Layer 1"
     inkscape:groupmode="layer"
     id="layer1"
     transform="translate(0,-556.29921)">
    <g
       id="g5920"
       transform="matrix(0.22587368,0,0,0.22587368,1.7409526,678.15779)"
       style="fill:#d2d2d2;fill-opacity:1;stroke:none;stroke-opacity:1">
      <path
         d="m 1717.2735,114.91673 c -251.9112,0 -456.1854,204.23642 -456.1854,456.18542 0,201.55467 130.711,372.55244 311.9674,432.87305 22.7987,4.2228 31.1688,-9.89607 31.1688,-21.94508 0,-10.8781 -0.423,-46.81362 -0.6194,-84.93231 -126.9113,27.59564 -153.691,-53.82396 -153.691,-53.82396 -20.7515,-52.72859 -50.6512,-66.74926 -50.6512,-66.74926 -41.3897,-28.31329 3.1199,-27.73162 3.1199,-27.73162 45.8089,3.21055 69.9296,47.01759 69.9296,47.01759 40.6871,69.73319 106.7187,49.57092 132.7506,37.91473 4.0944,-29.48419 15.9168,-49.61624 28.963,-61.00048 -101.325,-11.53533 -207.8398,-50.65118 -207.8398,-225.44873 0,-49.8051 17.8205,-90.49979 47.0025,-122.44667 -4.7365,-11.49755 -20.3511,-57.88814 4.4192,-120.7243 0,0 38.3076,-12.26053 125.4835,46.76074 36.3888,-10.10757 75.414,-15.17647 114.1823,-15.35022 38.7684,0.17345 77.8238,5.24265 114.2806,15.35022 87.0701,-59.02127 125.3248,-46.76074 125.3248,-46.76074 24.8308,62.83616 9.2086,109.22675 4.4721,120.7243 29.25,31.94688 46.9496,72.64157 46.9496,122.44667 0,175.21303 -106.7187,213.79253 -208.3006,225.08612 16.3625,14.15665 30.9422,41.91848 30.9422,84.47907 0,61.03825 -0.5288,110.16347 -0.5288,125.18885 0,12.13966 8.2114,26.36428 31.335,21.88468 181.1582,-60.38864 311.703,-231.32597 311.703,-432.81265 0,-251.949 -204.244,-456.18542 -456.1779,-456.18542"
         style="fill:#d2d2d2;fill-opacity:1;fill-rule:evenodd;stroke:none;stroke-opacity:1"
         id="path5457"
         inkscape:connector-curvature="0" />
      <path
         d="m 1433.8687,769.89952 c -1.0047,2.27382 -4.5703,2.94616 -7.8187,1.38998 -3.3087,-1.48819 -5.1671,-4.57787 -4.0944,-6.8517 0.9821,-2.3267 4.5552,-2.97637 7.8564,-1.42775 3.3164,1.49574 5.2049,4.61564 4.0567,6.88947 l 0,0"
         style="fill:#d2d2d2;fill-opacity:1;fill-rule:nonzero;stroke:none;stroke-opacity:1"
         id="path5459"
         inkscape:connector-curvature="0" />
      <path
         d="m 1452.3463,790.50749 c -2.1756,2.01698 -6.4286,1.08025 -9.3143,-2.10763 -2.984,-3.18034 -3.543,-7.43338 -1.3371,-9.48058 2.2436,-2.00942 6.3682,-1.06514 9.3597,2.10764 2.9839,3.2181 3.5656,7.44092 1.2917,9.48057 l 0,0"
         style="fill:#d2d2d2;fill-opacity:1;fill-rule:nonzero;stroke:none;stroke-opacity:1"
         id="path5461"
         inkscape:connector-curvature="0" />
      <path
         d="m 1470.333,816.78113 c -2.7951,1.94144 -7.3654,0.12087 -10.1907,-3.93576 -2.7951,-4.05662 -2.7951,-8.92155 0.06,-10.87055 2.8329,-1.94899 7.3352,-0.18855 10.1982,3.83 2.7875,4.12462 2.7875,8.98955 -0.068,10.97631 l 0,0"
         style="fill:#d2d2d2;fill-opacity:1;fill-rule:nonzero;stroke:none;stroke-opacity:1"
         id="path5463"
         inkscape:connector-curvature="0" />
      <path
         d="m 1494.9749,842.16338 c -2.5004,2.7573 -7.8262,2.01698 -11.7242,-1.74503 -3.9886,-3.67892 -5.0991,-8.8989 -2.5911,-11.65619 2.5307,-2.76485 7.8867,-1.98677 11.8149,1.74503 3.9584,3.67136 5.1671,8.92911 2.5004,11.65619 l 0,0"
         style="fill:#d2d2d2;fill-opacity:1;fill-rule:nonzero;stroke:none;stroke-opacity:1"
         id="path5465"
         inkscape:connector-curvature="0" />
      <path
         d="m 1528.969,856.9017 c -1.1029,3.57315 -6.2323,5.19732 -11.3994,3.67891 -5.1595,-1.56372 -8.5362,-5.74877 -7.4938,-9.3597 1.0727,-3.59582 6.2247,-5.28797 11.4296,-3.6638 5.152,1.55617 8.5363,5.711 7.4636,9.34459 l 0,0"
         style="fill:#d2d2d2;fill-opacity:1;fill-rule:nonzero;stroke:none;stroke-opacity:1"
         id="path5467"
         inkscape:connector-curvature="0" />
      <path
         d="m 1566.302,859.63633 c 0.1282,3.76202 -4.253,6.88192 -9.6769,6.9499 -5.4542,0.12087 -9.8659,-2.92349 -9.9263,-6.62506 0,-3.79979 4.2832,-6.88947 9.7374,-6.98012 5.424,-0.10576 9.8658,2.91594 9.8658,6.65528 l 0,0"
         style="fill:#d2d2d2;fill-opacity:1;fill-rule:nonzero;stroke:none;stroke-opacity:1"
         id="path5469"
         inkscape:connector-curvature="0" />
      <path
         d="m 1601.044,853.72136 c 0.6497,3.67137 -3.1199,7.44093 -8.5061,8.44564 -5.2955,0.96695 -10.1982,-1.29932 -10.8705,-4.94047 -0.6572,-3.76201 3.1803,-7.53158 8.4683,-8.50607 5.3937,-0.93673 10.2209,1.26911 10.9083,5.0009 l 0,0"
         style="fill:#d2d2d2;fill-opacity:1;fill-rule:nonzero;stroke:none;stroke-opacity:1"
         id="path5471"
         inkscape:connector-curvature="0" />
    </g>
    <g
       id="g6348"
       transform="matrix(3.1586257,1.0794976,-1.0794976,3.1586257,1624.51,-3159.1158)">
      <circle
         transform="matrix(0.94355593,-0.33121322,0.33121322,0.94355593,0,0)"
         r="1.1023884"
         cy="1164.8204"
         cx="-472.12576"
         id="path4606-8-0-4-3-2-28-4-2"
         style="opacity:1;fill:#d2d2d2;fill-opacity:1;fill-rule:evenodd;stroke:none;stroke-width:1.89999998;stroke-linecap:round;stroke-linejoin:round;stroke-miterlimit:4;stroke-dasharray:none;stroke-dashoffset:0;stroke-opacity:1" />
      <circle
         transform="matrix(0.94355593,-0.33121322,0.33121322,0.94355593,0,0)"
         r="1.9041252"
         cy="1170.8525"
         cx="-468.60654"
         id="path4606-8-7-9-8-7-7-3-1-2"
         style="opacity:1;fill:#d2d2d2;fill-opacity:1;fill-rule:evenodd;stroke:none;stroke-width:1.89999998;stroke-linecap:round;stroke-linejoin:round;stroke-miterlimit:4;stroke-dasharray:none;stroke-dashoffset:0;stroke-opacity:1" />
      <ellipse
         transform="matrix(0.94355593,-0.33121322,0.33121322,0.94355593,0,0)"
         ry="0.90195405"
         rx="1.0021712"
         cy="1159.5459"
         cx="-467.48178"
         id="path4606-8-7-0-4-4-4-6-2-6-3-1-6"
         style="opacity:1;fill:#d2d2d2;fill-opacity:1;fill-rule:evenodd;stroke:none;stroke-width:1.89999998;stroke-linecap:round;stroke-linejoin:round;stroke-miterlimit:4;stroke-dasharray:none;stroke-dashoffset:0;stroke-opacity:1" />
      <circle
         transform="matrix(-0.33121322,-0.94355593,0.94355593,-0.33121322,0,0)"
         r="1.4907731"
         cy="-475.49866"
         cx="-1178.0631"
         id="path4606-8-0-4-3-2-28-4-5-8-2-8"
         style="opacity:1;fill:#d2d2d2;fill-opacity:1;fill-rule:evenodd;stroke:none;stroke-width:1.89999998;stroke-linecap:round;stroke-linejoin:round;stroke-miterlimit:4;stroke-dasharray:none;stroke-dashoffset:0;stroke-opacity:1" />
      <path
         inkscape:connector-curvature="0"
         id="path4323-9-8-3-7-6-1"
         d="m -69.83383,1242.9703 c 0,0 -2.54342,3.0705 -1.93091,4.8155 0.61252,1.7449 4.51645,2.5501 4.51645,2.5501 l 0.59329,-0.2082 4.02998,11.4805 a 25.963517,25.963517 0 0 0 -8.00125,28.6226 25.963517,25.963517 0 0 0 33.09839,15.899 25.963517,25.963517 0 0 0 15.89901,-33.0984 25.963517,25.963517 0 0 0 -24.40047,-17.3323 l -4.00386,-11.4061 0.83176,-0.292 c 0,0 2.5441,-3.0687 1.93158,-4.8136 -0.61251,-1.7449 -4.51712,-2.552 -4.51712,-2.552 l -18.04685,6.3349 z"
         style="fill:#000000;fill-opacity:0;fill-rule:evenodd;stroke:#d2d2d2;stroke-width:2.56743813;stroke-linecap:butt;stroke-linejoin:round;stroke-miterlimit:4;stroke-dasharray:none;stroke-opacity:1" />
      <path
         id="path7606-6-0"
         d="m -45.78505,1267.727 c -6.11463,2.3005 -7.20167,7.7604 -23.00043,13.2464 -2.24812,4.0365 7.11908,25.0094 24.08625,23.0481 0.003,-10e-5 0.007,0 0.0104,-10e-4 17.13036,-0.6479 27.90237,-24.2989 15.49425,-36.8519 l -0.007,-0.01 c -8.79863,-0.9782 -13.38087,-0.6399 -16.58378,0.5651 z m 1.46487,3.3856 a 2.5749717,2.5749717 0 0 1 3.28355,1.5773 2.5749717,2.5749717 0 0 1 -1.57727,3.2836 2.5749717,2.5749717 0 0 1 -3.28356,-1.5773 2.5749717,2.5749717 0 0 1 1.57728,-3.2836 z m -6.7036,8.8972 a 0.90195406,1.0021712 70.65757 0 1 1.24488,0.5187 0.90195406,1.0021712 70.65757 0 1 -0.64688,1.1849 0.90195406,1.0021712 70.65757 0 1 -1.24555,-0.5206 0.90195406,1.0021712 70.65757 0 1 0.64755,-1.183 z m 14.91829,-4.3453 a 1.4907732,1.4907732 0 0 1 1.90141,0.9118 1.4907732,1.4907732 0 0 1 -0.91435,1.9001 1.4907732,1.4907732 0 0 1 -1.89951,-0.9124 1.4907732,1.4907732 0 0 1 0.91245,-1.8995 z m -20.68978,11.9789 a 1.4907732,1.4907732 0 0 1 1.9021,0.9136 1.4907732,1.4907732 0 0 1 -0.91436,1.9002 1.4907732,1.4907732 0 0 1 -1.8995,-0.9124 1.4907732,1.4907732 0 0 1 0.91176,-1.9014 z m 5.86934,0.038 a 1.1023884,1.1023884 0 0 1 1.40466,0.6747 1.1023884,1.1023884 0 0 1 -0.67407,1.4066 1.1023884,1.1023884 0 0 1 -1.40532,-0.6767 1.1023884,1.1023884 0 0 1 0.67473,-1.4046 z m 12.23729,-3.4064 a 1.3552482,1.2197234 70.65757 0 1 1.599,0.8744 1.3552482,1.2197234 70.65757 0 1 -0.70166,1.6819 1.3552482,1.2197234 70.65757 0 1 -1.60093,-0.8737 1.3552482,1.2197234 70.65757 0 1 0.70359,-1.6826 z m 4.1875,5.3184 a 1.9041253,1.9041253 0 0 1 2.4272,1.1643 1.9041253,1.9041253 0 0 1 -1.16625,2.4279 1.9041253,1.9041253 0 0 1 -2.42595,-1.167 1.9041253,1.9041253 0 0 1 1.165,-2.4252 z m -11.92348,8.8052 a 0.90195406,1.0021712 70.65757 0 1 1.24298,0.5194 0.90195406,1.0021712 70.65757 0 1 -0.64565,1.1823 0.90195406,1.0021712 70.65757 0 1 -1.24489,-0.5187 0.90195406,1.0021712 70.65757 0 1 0.64756,-1.183 z"
         style="fill:#d2d2d2;fill-opacity:1;fill-rule:evenodd;stroke:none;stroke-width:2.48020339;stroke-linecap:butt;stroke-linejoin:round;stroke-miterlimit:4;stroke-dasharray:none;stroke-opacity:1"
         inkscape:connector-curvature="0" />
    </g>
    <g
       id="g6373"
       transform="translate(-0.397085,-4.4600578)">
      <rect
         y="805.20911"
         x="206.59692"
         height="7.1633215"
         width="59.663315"
         id="rect6356"
         style="opacity:1;fill:#d2d2d2;fill-opacity:1;fill-rule:evenodd;stroke:#d2d2d2;stroke-width:10.3366766;stroke-linecap:round;stroke-linejoin:round;stroke-miterlimit:4;stroke-dasharray:none;stroke-dashoffset:0;stroke-opacity:1" />
      <rect
         transform="matrix(0,1,-1,0,0,0)"
         y="-240.01024"
         x="778.95911"
         height="7.1633215"
         width="59.663315"
         id="rect6356-6"
         style="opacity:1;fill:#d2d2d2;fill-opacity:1;fill-rule:evenodd;stroke:#d2d2d2;stroke-width:10.3366766;stroke-linecap:round;stroke-linejoin:round;stroke-miterlimit:4;stroke-dasharray:none;stroke-dashoffset:0;stroke-opacity:1" />
    </g>
  </g>
</svg>
